G04 #@! TF.GenerationSoftware,KiCad,Pcbnew,5.1.4-e60b266~84~ubuntu18.04.1*
G04 #@! TF.CreationDate,2019-10-28T16:04:40+08:00*
G04 #@! TF.ProjectId,ST-Adapt,53542d41-6461-4707-942e-6b696361645f,rev?*
G04 #@! TF.SameCoordinates,Original*
G04 #@! TF.FileFunction,Soldermask,Bot*
G04 #@! TF.FilePolarity,Negative*
%FSLAX46Y46*%
G04 Gerber Fmt 4.6, Leading zero omitted, Abs format (unit mm)*
G04 Created by KiCad (PCBNEW 5.1.4-e60b266~84~ubuntu18.04.1) date 2019-10-28 16:04:40*
%MOMM*%
%LPD*%
G04 APERTURE LIST*
%ADD10C,0.100000*%
G04 APERTURE END LIST*
D10*
G36*
X138754294Y-95774633D02*
G01*
X138926695Y-95826931D01*
X139085583Y-95911858D01*
X139224849Y-96026151D01*
X139339142Y-96165417D01*
X139424069Y-96324305D01*
X139476367Y-96496706D01*
X139494025Y-96676000D01*
X139476367Y-96855294D01*
X139424069Y-97027695D01*
X139339142Y-97186583D01*
X139224849Y-97325849D01*
X139085583Y-97440142D01*
X138926695Y-97525069D01*
X138754294Y-97577367D01*
X138619931Y-97590600D01*
X138530069Y-97590600D01*
X138395706Y-97577367D01*
X138223305Y-97525069D01*
X138064417Y-97440142D01*
X137925151Y-97325849D01*
X137810858Y-97186583D01*
X137725931Y-97027695D01*
X137673633Y-96855294D01*
X137655975Y-96676000D01*
X137673633Y-96496706D01*
X137725931Y-96324305D01*
X137810858Y-96165417D01*
X137925151Y-96026151D01*
X138064417Y-95911858D01*
X138223305Y-95826931D01*
X138395706Y-95774633D01*
X138530069Y-95761400D01*
X138619931Y-95761400D01*
X138754294Y-95774633D01*
X138754294Y-95774633D01*
G37*
G36*
X141294294Y-95774633D02*
G01*
X141466695Y-95826931D01*
X141625583Y-95911858D01*
X141764849Y-96026151D01*
X141879142Y-96165417D01*
X141964069Y-96324305D01*
X142016367Y-96496706D01*
X142034025Y-96676000D01*
X142016367Y-96855294D01*
X141964069Y-97027695D01*
X141879142Y-97186583D01*
X141764849Y-97325849D01*
X141625583Y-97440142D01*
X141466695Y-97525069D01*
X141294294Y-97577367D01*
X141159931Y-97590600D01*
X141070069Y-97590600D01*
X140935706Y-97577367D01*
X140763305Y-97525069D01*
X140604417Y-97440142D01*
X140465151Y-97325849D01*
X140350858Y-97186583D01*
X140265931Y-97027695D01*
X140213633Y-96855294D01*
X140195975Y-96676000D01*
X140213633Y-96496706D01*
X140265931Y-96324305D01*
X140350858Y-96165417D01*
X140465151Y-96026151D01*
X140604417Y-95911858D01*
X140763305Y-95826931D01*
X140935706Y-95774633D01*
X141070069Y-95761400D01*
X141159931Y-95761400D01*
X141294294Y-95774633D01*
X141294294Y-95774633D01*
G37*
G36*
X149491000Y-95897000D02*
G01*
X147689000Y-95897000D01*
X147689000Y-94095000D01*
X149491000Y-94095000D01*
X149491000Y-95897000D01*
X149491000Y-95897000D01*
G37*
G36*
X138754294Y-93234633D02*
G01*
X138926695Y-93286931D01*
X139085583Y-93371858D01*
X139224849Y-93486151D01*
X139339142Y-93625417D01*
X139424069Y-93784305D01*
X139476367Y-93956706D01*
X139494025Y-94136000D01*
X139476367Y-94315294D01*
X139424069Y-94487695D01*
X139339142Y-94646583D01*
X139224849Y-94785849D01*
X139085583Y-94900142D01*
X138926695Y-94985069D01*
X138754294Y-95037367D01*
X138619931Y-95050600D01*
X138530069Y-95050600D01*
X138395706Y-95037367D01*
X138223305Y-94985069D01*
X138064417Y-94900142D01*
X137925151Y-94785849D01*
X137810858Y-94646583D01*
X137725931Y-94487695D01*
X137673633Y-94315294D01*
X137655975Y-94136000D01*
X137673633Y-93956706D01*
X137725931Y-93784305D01*
X137810858Y-93625417D01*
X137925151Y-93486151D01*
X138064417Y-93371858D01*
X138223305Y-93286931D01*
X138395706Y-93234633D01*
X138530069Y-93221400D01*
X138619931Y-93221400D01*
X138754294Y-93234633D01*
X138754294Y-93234633D01*
G37*
G36*
X141294294Y-93234633D02*
G01*
X141466695Y-93286931D01*
X141625583Y-93371858D01*
X141764849Y-93486151D01*
X141879142Y-93625417D01*
X141964069Y-93784305D01*
X142016367Y-93956706D01*
X142034025Y-94136000D01*
X142016367Y-94315294D01*
X141964069Y-94487695D01*
X141879142Y-94646583D01*
X141764849Y-94785849D01*
X141625583Y-94900142D01*
X141466695Y-94985069D01*
X141294294Y-95037367D01*
X141159931Y-95050600D01*
X141070069Y-95050600D01*
X140935706Y-95037367D01*
X140763305Y-94985069D01*
X140604417Y-94900142D01*
X140465151Y-94785849D01*
X140350858Y-94646583D01*
X140265931Y-94487695D01*
X140213633Y-94315294D01*
X140195975Y-94136000D01*
X140213633Y-93956706D01*
X140265931Y-93784305D01*
X140350858Y-93625417D01*
X140465151Y-93486151D01*
X140604417Y-93371858D01*
X140763305Y-93286931D01*
X140935706Y-93234633D01*
X141070069Y-93221400D01*
X141159931Y-93221400D01*
X141294294Y-93234633D01*
X141294294Y-93234633D01*
G37*
G36*
X148700443Y-91561519D02*
G01*
X148766627Y-91568037D01*
X148936466Y-91619557D01*
X149092991Y-91703222D01*
X149128729Y-91732552D01*
X149230186Y-91815814D01*
X149313448Y-91917271D01*
X149342778Y-91953009D01*
X149426443Y-92109534D01*
X149477963Y-92279373D01*
X149495359Y-92456000D01*
X149477963Y-92632627D01*
X149426443Y-92802466D01*
X149342778Y-92958991D01*
X149313448Y-92994729D01*
X149230186Y-93096186D01*
X149128729Y-93179448D01*
X149092991Y-93208778D01*
X148936466Y-93292443D01*
X148766627Y-93343963D01*
X148700442Y-93350482D01*
X148634260Y-93357000D01*
X148545740Y-93357000D01*
X148479558Y-93350482D01*
X148413373Y-93343963D01*
X148243534Y-93292443D01*
X148087009Y-93208778D01*
X148051271Y-93179448D01*
X147949814Y-93096186D01*
X147866552Y-92994729D01*
X147837222Y-92958991D01*
X147753557Y-92802466D01*
X147702037Y-92632627D01*
X147684641Y-92456000D01*
X147702037Y-92279373D01*
X147753557Y-92109534D01*
X147837222Y-91953009D01*
X147866552Y-91917271D01*
X147949814Y-91815814D01*
X148051271Y-91732552D01*
X148087009Y-91703222D01*
X148243534Y-91619557D01*
X148413373Y-91568037D01*
X148479557Y-91561519D01*
X148545740Y-91555000D01*
X148634260Y-91555000D01*
X148700443Y-91561519D01*
X148700443Y-91561519D01*
G37*
G36*
X138754294Y-90694633D02*
G01*
X138926695Y-90746931D01*
X139085583Y-90831858D01*
X139224849Y-90946151D01*
X139339142Y-91085417D01*
X139424069Y-91244305D01*
X139476367Y-91416706D01*
X139494025Y-91596000D01*
X139476367Y-91775294D01*
X139424069Y-91947695D01*
X139339142Y-92106583D01*
X139224849Y-92245849D01*
X139085583Y-92360142D01*
X138926695Y-92445069D01*
X138754294Y-92497367D01*
X138619931Y-92510600D01*
X138530069Y-92510600D01*
X138395706Y-92497367D01*
X138223305Y-92445069D01*
X138064417Y-92360142D01*
X137925151Y-92245849D01*
X137810858Y-92106583D01*
X137725931Y-91947695D01*
X137673633Y-91775294D01*
X137655975Y-91596000D01*
X137673633Y-91416706D01*
X137725931Y-91244305D01*
X137810858Y-91085417D01*
X137925151Y-90946151D01*
X138064417Y-90831858D01*
X138223305Y-90746931D01*
X138395706Y-90694633D01*
X138530069Y-90681400D01*
X138619931Y-90681400D01*
X138754294Y-90694633D01*
X138754294Y-90694633D01*
G37*
G36*
X141294294Y-90694633D02*
G01*
X141466695Y-90746931D01*
X141625583Y-90831858D01*
X141764849Y-90946151D01*
X141879142Y-91085417D01*
X141964069Y-91244305D01*
X142016367Y-91416706D01*
X142034025Y-91596000D01*
X142016367Y-91775294D01*
X141964069Y-91947695D01*
X141879142Y-92106583D01*
X141764849Y-92245849D01*
X141625583Y-92360142D01*
X141466695Y-92445069D01*
X141294294Y-92497367D01*
X141159931Y-92510600D01*
X141070069Y-92510600D01*
X140935706Y-92497367D01*
X140763305Y-92445069D01*
X140604417Y-92360142D01*
X140465151Y-92245849D01*
X140350858Y-92106583D01*
X140265931Y-91947695D01*
X140213633Y-91775294D01*
X140195975Y-91596000D01*
X140213633Y-91416706D01*
X140265931Y-91244305D01*
X140350858Y-91085417D01*
X140465151Y-90946151D01*
X140604417Y-90831858D01*
X140763305Y-90746931D01*
X140935706Y-90694633D01*
X141070069Y-90681400D01*
X141159931Y-90681400D01*
X141294294Y-90694633D01*
X141294294Y-90694633D01*
G37*
G36*
X148700442Y-89021518D02*
G01*
X148766627Y-89028037D01*
X148936466Y-89079557D01*
X149092991Y-89163222D01*
X149128729Y-89192552D01*
X149230186Y-89275814D01*
X149313448Y-89377271D01*
X149342778Y-89413009D01*
X149426443Y-89569534D01*
X149477963Y-89739373D01*
X149495359Y-89916000D01*
X149477963Y-90092627D01*
X149426443Y-90262466D01*
X149342778Y-90418991D01*
X149313448Y-90454729D01*
X149230186Y-90556186D01*
X149128729Y-90639448D01*
X149092991Y-90668778D01*
X148936466Y-90752443D01*
X148766627Y-90803963D01*
X148700443Y-90810481D01*
X148634260Y-90817000D01*
X148545740Y-90817000D01*
X148479557Y-90810481D01*
X148413373Y-90803963D01*
X148243534Y-90752443D01*
X148087009Y-90668778D01*
X148051271Y-90639448D01*
X147949814Y-90556186D01*
X147866552Y-90454729D01*
X147837222Y-90418991D01*
X147753557Y-90262466D01*
X147702037Y-90092627D01*
X147684641Y-89916000D01*
X147702037Y-89739373D01*
X147753557Y-89569534D01*
X147837222Y-89413009D01*
X147866552Y-89377271D01*
X147949814Y-89275814D01*
X148051271Y-89192552D01*
X148087009Y-89163222D01*
X148243534Y-89079557D01*
X148413373Y-89028037D01*
X148479558Y-89021518D01*
X148545740Y-89015000D01*
X148634260Y-89015000D01*
X148700442Y-89021518D01*
X148700442Y-89021518D01*
G37*
G36*
X141294294Y-88154633D02*
G01*
X141466695Y-88206931D01*
X141625583Y-88291858D01*
X141764849Y-88406151D01*
X141879142Y-88545417D01*
X141964069Y-88704305D01*
X142016367Y-88876706D01*
X142034025Y-89056000D01*
X142016367Y-89235294D01*
X141964069Y-89407695D01*
X141879142Y-89566583D01*
X141764849Y-89705849D01*
X141625583Y-89820142D01*
X141466695Y-89905069D01*
X141294294Y-89957367D01*
X141159931Y-89970600D01*
X141070069Y-89970600D01*
X140935706Y-89957367D01*
X140763305Y-89905069D01*
X140604417Y-89820142D01*
X140465151Y-89705849D01*
X140350858Y-89566583D01*
X140265931Y-89407695D01*
X140213633Y-89235294D01*
X140195975Y-89056000D01*
X140213633Y-88876706D01*
X140265931Y-88704305D01*
X140350858Y-88545417D01*
X140465151Y-88406151D01*
X140604417Y-88291858D01*
X140763305Y-88206931D01*
X140935706Y-88154633D01*
X141070069Y-88141400D01*
X141159931Y-88141400D01*
X141294294Y-88154633D01*
X141294294Y-88154633D01*
G37*
G36*
X138754294Y-88154633D02*
G01*
X138926695Y-88206931D01*
X139085583Y-88291858D01*
X139224849Y-88406151D01*
X139339142Y-88545417D01*
X139424069Y-88704305D01*
X139476367Y-88876706D01*
X139494025Y-89056000D01*
X139476367Y-89235294D01*
X139424069Y-89407695D01*
X139339142Y-89566583D01*
X139224849Y-89705849D01*
X139085583Y-89820142D01*
X138926695Y-89905069D01*
X138754294Y-89957367D01*
X138619931Y-89970600D01*
X138530069Y-89970600D01*
X138395706Y-89957367D01*
X138223305Y-89905069D01*
X138064417Y-89820142D01*
X137925151Y-89705849D01*
X137810858Y-89566583D01*
X137725931Y-89407695D01*
X137673633Y-89235294D01*
X137655975Y-89056000D01*
X137673633Y-88876706D01*
X137725931Y-88704305D01*
X137810858Y-88545417D01*
X137925151Y-88406151D01*
X138064417Y-88291858D01*
X138223305Y-88206931D01*
X138395706Y-88154633D01*
X138530069Y-88141400D01*
X138619931Y-88141400D01*
X138754294Y-88154633D01*
X138754294Y-88154633D01*
G37*
G36*
X148700442Y-86481518D02*
G01*
X148766627Y-86488037D01*
X148936466Y-86539557D01*
X149092991Y-86623222D01*
X149128729Y-86652552D01*
X149230186Y-86735814D01*
X149313448Y-86837271D01*
X149342778Y-86873009D01*
X149426443Y-87029534D01*
X149477963Y-87199373D01*
X149495359Y-87376000D01*
X149477963Y-87552627D01*
X149426443Y-87722466D01*
X149342778Y-87878991D01*
X149313448Y-87914729D01*
X149230186Y-88016186D01*
X149128729Y-88099448D01*
X149092991Y-88128778D01*
X148936466Y-88212443D01*
X148766627Y-88263963D01*
X148700442Y-88270482D01*
X148634260Y-88277000D01*
X148545740Y-88277000D01*
X148479558Y-88270482D01*
X148413373Y-88263963D01*
X148243534Y-88212443D01*
X148087009Y-88128778D01*
X148051271Y-88099448D01*
X147949814Y-88016186D01*
X147866552Y-87914729D01*
X147837222Y-87878991D01*
X147753557Y-87722466D01*
X147702037Y-87552627D01*
X147684641Y-87376000D01*
X147702037Y-87199373D01*
X147753557Y-87029534D01*
X147837222Y-86873009D01*
X147866552Y-86837271D01*
X147949814Y-86735814D01*
X148051271Y-86652552D01*
X148087009Y-86623222D01*
X148243534Y-86539557D01*
X148413373Y-86488037D01*
X148479558Y-86481518D01*
X148545740Y-86475000D01*
X148634260Y-86475000D01*
X148700442Y-86481518D01*
X148700442Y-86481518D01*
G37*
G36*
X139489600Y-87430600D02*
G01*
X137660400Y-87430600D01*
X137660400Y-85601400D01*
X139489600Y-85601400D01*
X139489600Y-87430600D01*
X139489600Y-87430600D01*
G37*
G36*
X141294294Y-85614633D02*
G01*
X141466695Y-85666931D01*
X141625583Y-85751858D01*
X141764849Y-85866151D01*
X141879142Y-86005417D01*
X141964069Y-86164305D01*
X142016367Y-86336706D01*
X142034025Y-86516000D01*
X142016367Y-86695294D01*
X141964069Y-86867695D01*
X141879142Y-87026583D01*
X141764849Y-87165849D01*
X141625583Y-87280142D01*
X141466695Y-87365069D01*
X141294294Y-87417367D01*
X141159931Y-87430600D01*
X141070069Y-87430600D01*
X140935706Y-87417367D01*
X140763305Y-87365069D01*
X140604417Y-87280142D01*
X140465151Y-87165849D01*
X140350858Y-87026583D01*
X140265931Y-86867695D01*
X140213633Y-86695294D01*
X140195975Y-86516000D01*
X140213633Y-86336706D01*
X140265931Y-86164305D01*
X140350858Y-86005417D01*
X140465151Y-85866151D01*
X140604417Y-85751858D01*
X140763305Y-85666931D01*
X140935706Y-85614633D01*
X141070069Y-85601400D01*
X141159931Y-85601400D01*
X141294294Y-85614633D01*
X141294294Y-85614633D01*
G37*
M02*
