G04 #@! TF.GenerationSoftware,KiCad,Pcbnew,5.1.4-e60b266~84~ubuntu18.04.1*
G04 #@! TF.CreationDate,2019-10-28T16:04:40+08:00*
G04 #@! TF.ProjectId,ST-Adapt,53542d41-6461-4707-942e-6b696361645f,rev?*
G04 #@! TF.SameCoordinates,Original*
G04 #@! TF.FileFunction,Legend,Top*
G04 #@! TF.FilePolarity,Positive*
%FSLAX46Y46*%
G04 Gerber Fmt 4.6, Leading zero omitted, Abs format (unit mm)*
G04 Created by KiCad (PCBNEW 5.1.4-e60b266~84~ubuntu18.04.1) date 2019-10-28 16:04:40*
%MOMM*%
%LPD*%
G04 APERTURE LIST*
%ADD10C,0.150000*%
%ADD11C,0.120000*%
G04 APERTURE END LIST*
D10*
X145883333Y-88082380D02*
X145550000Y-87606190D01*
X145311904Y-88082380D02*
X145311904Y-87082380D01*
X145692857Y-87082380D01*
X145788095Y-87130000D01*
X145835714Y-87177619D01*
X145883333Y-87272857D01*
X145883333Y-87415714D01*
X145835714Y-87510952D01*
X145788095Y-87558571D01*
X145692857Y-87606190D01*
X145311904Y-87606190D01*
X146264285Y-88034761D02*
X146407142Y-88082380D01*
X146645238Y-88082380D01*
X146740476Y-88034761D01*
X146788095Y-87987142D01*
X146835714Y-87891904D01*
X146835714Y-87796666D01*
X146788095Y-87701428D01*
X146740476Y-87653809D01*
X146645238Y-87606190D01*
X146454761Y-87558571D01*
X146359523Y-87510952D01*
X146311904Y-87463333D01*
X146264285Y-87368095D01*
X146264285Y-87272857D01*
X146311904Y-87177619D01*
X146359523Y-87130000D01*
X146454761Y-87082380D01*
X146692857Y-87082380D01*
X146835714Y-87130000D01*
X145550000Y-90622380D02*
X145550000Y-89622380D01*
X145788095Y-89622380D01*
X145930952Y-89670000D01*
X146026190Y-89765238D01*
X146073809Y-89860476D01*
X146121428Y-90050952D01*
X146121428Y-90193809D01*
X146073809Y-90384285D01*
X146026190Y-90479523D01*
X145930952Y-90574761D01*
X145788095Y-90622380D01*
X145550000Y-90622380D01*
X146550000Y-90622380D02*
X146550000Y-89622380D01*
X145859523Y-93067142D02*
X145811904Y-93114761D01*
X145669047Y-93162380D01*
X145573809Y-93162380D01*
X145430952Y-93114761D01*
X145335714Y-93019523D01*
X145288095Y-92924285D01*
X145240476Y-92733809D01*
X145240476Y-92590952D01*
X145288095Y-92400476D01*
X145335714Y-92305238D01*
X145430952Y-92210000D01*
X145573809Y-92162380D01*
X145669047Y-92162380D01*
X145811904Y-92210000D01*
X145859523Y-92257619D01*
X146288095Y-93162380D02*
X146288095Y-92162380D01*
X146859523Y-93162380D02*
X146430952Y-92590952D01*
X146859523Y-92162380D02*
X146288095Y-92733809D01*
X145811904Y-94750000D02*
X145716666Y-94702380D01*
X145573809Y-94702380D01*
X145430952Y-94750000D01*
X145335714Y-94845238D01*
X145288095Y-94940476D01*
X145240476Y-95130952D01*
X145240476Y-95273809D01*
X145288095Y-95464285D01*
X145335714Y-95559523D01*
X145430952Y-95654761D01*
X145573809Y-95702380D01*
X145669047Y-95702380D01*
X145811904Y-95654761D01*
X145859523Y-95607142D01*
X145859523Y-95273809D01*
X145669047Y-95273809D01*
X146288095Y-95702380D02*
X146288095Y-94702380D01*
X146526190Y-94702380D01*
X146669047Y-94750000D01*
X146764285Y-94845238D01*
X146811904Y-94940476D01*
X146859523Y-95130952D01*
X146859523Y-95273809D01*
X146811904Y-95464285D01*
X146764285Y-95559523D01*
X146669047Y-95654761D01*
X146526190Y-95702380D01*
X146288095Y-95702380D01*
D11*
X134920000Y-80916000D02*
X137460000Y-80916000D01*
X134920000Y-80916000D02*
X134920000Y-83456000D01*
X135170000Y-81166000D02*
X144520000Y-81166000D01*
X135170000Y-102026000D02*
X135170000Y-81166000D01*
X144520000Y-102026000D02*
X135170000Y-102026000D01*
X144520000Y-81166000D02*
X144520000Y-102026000D01*
X149920000Y-96326000D02*
X148590000Y-96326000D01*
X149920000Y-94996000D02*
X149920000Y-96326000D01*
X149920000Y-93726000D02*
X147260000Y-93726000D01*
X147260000Y-93726000D02*
X147260000Y-86046000D01*
X149920000Y-93726000D02*
X149920000Y-86046000D01*
X149920000Y-86046000D02*
X147260000Y-86046000D01*
D10*
X145716666Y-82002380D02*
X145716666Y-82716666D01*
X145669047Y-82859523D01*
X145573809Y-82954761D01*
X145430952Y-83002380D01*
X145335714Y-83002380D01*
X146145238Y-82097619D02*
X146192857Y-82050000D01*
X146288095Y-82002380D01*
X146526190Y-82002380D01*
X146621428Y-82050000D01*
X146669047Y-82097619D01*
X146716666Y-82192857D01*
X146716666Y-82288095D01*
X146669047Y-82430952D01*
X146097619Y-83002380D01*
X146716666Y-83002380D01*
X148256666Y-97242380D02*
X148256666Y-97956666D01*
X148209047Y-98099523D01*
X148113809Y-98194761D01*
X147970952Y-98242380D01*
X147875714Y-98242380D01*
X149256666Y-98242380D02*
X148685238Y-98242380D01*
X148970952Y-98242380D02*
X148970952Y-97242380D01*
X148875714Y-97385238D01*
X148780476Y-97480476D01*
X148685238Y-97528095D01*
M02*
